<mxfile host="app.diagrams.net" agent="Mozilla/5.0 (Windows NT 10.0; Win64; x64) AppleWebKit/537.36 (KHTML, like Gecko) Chrome/129.0.0.0 Safari/537.36" version="28.2.3">
  <diagram name="Page-1" id="ZU5ou_c260VMI8BkDugq">
    <mxGraphModel dx="1042" dy="1670" grid="1" gridSize="10" guides="1" tooltips="1" connect="1" arrows="1" fold="1" page="1" pageScale="1" pageWidth="850" pageHeight="1100" math="0" shadow="0">
      <root>
        <mxCell id="0" />
        <mxCell id="1" parent="0" />
        <mxCell id="D5_to-sRCKfcogDpb_UM-41" value="" style="edgeStyle=orthogonalEdgeStyle;rounded=0;orthogonalLoop=1;jettySize=auto;html=1;" edge="1" parent="1" source="D5_to-sRCKfcogDpb_UM-2" target="D5_to-sRCKfcogDpb_UM-40">
          <mxGeometry relative="1" as="geometry" />
        </mxCell>
        <mxCell id="D5_to-sRCKfcogDpb_UM-2" value="start" style="ellipse;whiteSpace=wrap;html=1;" vertex="1" parent="1">
          <mxGeometry x="250" y="-1060" width="160" height="130" as="geometry" />
        </mxCell>
        <mxCell id="D5_to-sRCKfcogDpb_UM-43" value="" style="edgeStyle=orthogonalEdgeStyle;rounded=0;orthogonalLoop=1;jettySize=auto;html=1;" edge="1" parent="1" source="D5_to-sRCKfcogDpb_UM-40">
          <mxGeometry relative="1" as="geometry">
            <mxPoint x="330" y="-650" as="targetPoint" />
          </mxGeometry>
        </mxCell>
        <mxCell id="D5_to-sRCKfcogDpb_UM-40" value="N" style="shape=parallelogram;perimeter=parallelogramPerimeter;whiteSpace=wrap;html=1;fixedSize=1;" vertex="1" parent="1">
          <mxGeometry x="235" y="-840" width="190" height="105" as="geometry" />
        </mxCell>
        <mxCell id="D5_to-sRCKfcogDpb_UM-46" value="" style="edgeStyle=orthogonalEdgeStyle;rounded=0;orthogonalLoop=1;jettySize=auto;html=1;" edge="1" parent="1" source="D5_to-sRCKfcogDpb_UM-44" target="D5_to-sRCKfcogDpb_UM-45">
          <mxGeometry relative="1" as="geometry" />
        </mxCell>
        <mxCell id="D5_to-sRCKfcogDpb_UM-44" value="tổng=0&lt;div&gt;&lt;br&gt;&lt;/div&gt;&lt;div&gt;i=1&lt;/div&gt;" style="rounded=0;whiteSpace=wrap;html=1;" vertex="1" parent="1">
          <mxGeometry x="245" y="-650" width="170" height="110" as="geometry" />
        </mxCell>
        <mxCell id="D5_to-sRCKfcogDpb_UM-48" value="" style="edgeStyle=orthogonalEdgeStyle;rounded=0;orthogonalLoop=1;jettySize=auto;html=1;" edge="1" parent="1" source="D5_to-sRCKfcogDpb_UM-45" target="D5_to-sRCKfcogDpb_UM-47">
          <mxGeometry relative="1" as="geometry" />
        </mxCell>
        <mxCell id="D5_to-sRCKfcogDpb_UM-62" style="edgeStyle=orthogonalEdgeStyle;rounded=0;orthogonalLoop=1;jettySize=auto;html=1;" edge="1" parent="1" source="D5_to-sRCKfcogDpb_UM-45">
          <mxGeometry relative="1" as="geometry">
            <mxPoint x="580" y="-375" as="targetPoint" />
          </mxGeometry>
        </mxCell>
        <mxCell id="D5_to-sRCKfcogDpb_UM-45" value="kiểm tra" style="whiteSpace=wrap;html=1;rounded=0;" vertex="1" parent="1">
          <mxGeometry x="245" y="-430" width="170" height="110" as="geometry" />
        </mxCell>
        <mxCell id="D5_to-sRCKfcogDpb_UM-50" value="no" style="edgeStyle=orthogonalEdgeStyle;rounded=0;orthogonalLoop=1;jettySize=auto;html=1;" edge="1" parent="1" source="D5_to-sRCKfcogDpb_UM-47" target="D5_to-sRCKfcogDpb_UM-49">
          <mxGeometry relative="1" as="geometry" />
        </mxCell>
        <mxCell id="D5_to-sRCKfcogDpb_UM-52" value="" style="edgeStyle=orthogonalEdgeStyle;rounded=0;orthogonalLoop=1;jettySize=auto;html=1;" edge="1" parent="1" source="D5_to-sRCKfcogDpb_UM-47">
          <mxGeometry relative="1" as="geometry">
            <mxPoint x="500" y="-152.5" as="targetPoint" />
          </mxGeometry>
        </mxCell>
        <mxCell id="D5_to-sRCKfcogDpb_UM-55" value="yes" style="edgeLabel;html=1;align=center;verticalAlign=middle;resizable=0;points=[];" vertex="1" connectable="0" parent="D5_to-sRCKfcogDpb_UM-52">
          <mxGeometry x="-0.2545" y="3" relative="1" as="geometry">
            <mxPoint as="offset" />
          </mxGeometry>
        </mxCell>
        <mxCell id="D5_to-sRCKfcogDpb_UM-47" value="i&amp;lt;=1" style="rhombus;whiteSpace=wrap;html=1;rounded=0;" vertex="1" parent="1">
          <mxGeometry x="255" y="-225" width="150" height="145" as="geometry" />
        </mxCell>
        <mxCell id="D5_to-sRCKfcogDpb_UM-56" style="edgeStyle=orthogonalEdgeStyle;rounded=0;orthogonalLoop=1;jettySize=auto;html=1;" edge="1" parent="1" source="D5_to-sRCKfcogDpb_UM-49">
          <mxGeometry relative="1" as="geometry">
            <mxPoint x="85" y="30" as="targetPoint" />
          </mxGeometry>
        </mxCell>
        <mxCell id="D5_to-sRCKfcogDpb_UM-49" value="tổng" style="shape=parallelogram;perimeter=parallelogramPerimeter;whiteSpace=wrap;html=1;fixedSize=1;rounded=0;" vertex="1" parent="1">
          <mxGeometry y="-206.25" width="170" height="107.5" as="geometry" />
        </mxCell>
        <mxCell id="D5_to-sRCKfcogDpb_UM-64" style="edgeStyle=orthogonalEdgeStyle;rounded=0;orthogonalLoop=1;jettySize=auto;html=1;" edge="1" parent="1" source="D5_to-sRCKfcogDpb_UM-53">
          <mxGeometry relative="1" as="geometry">
            <mxPoint x="580" y="-380" as="targetPoint" />
          </mxGeometry>
        </mxCell>
        <mxCell id="D5_to-sRCKfcogDpb_UM-53" value="tổng=tổng+1&lt;div&gt;&lt;br&gt;&lt;/div&gt;&lt;div&gt;i=i+1&lt;/div&gt;" style="shape=parallelogram;perimeter=parallelogramPerimeter;whiteSpace=wrap;html=1;fixedSize=1;" vertex="1" parent="1">
          <mxGeometry x="490" y="-206.25" width="180" height="110" as="geometry" />
        </mxCell>
        <mxCell id="D5_to-sRCKfcogDpb_UM-59" style="edgeStyle=orthogonalEdgeStyle;rounded=0;orthogonalLoop=1;jettySize=auto;html=1;" edge="1" parent="1" source="D5_to-sRCKfcogDpb_UM-58">
          <mxGeometry relative="1" as="geometry">
            <mxPoint x="80" y="30" as="targetPoint" />
          </mxGeometry>
        </mxCell>
        <mxCell id="D5_to-sRCKfcogDpb_UM-58" value="end" style="ellipse;whiteSpace=wrap;html=1;" vertex="1" parent="1">
          <mxGeometry x="230" y="-30" width="175" height="120" as="geometry" />
        </mxCell>
      </root>
    </mxGraphModel>
  </diagram>
</mxfile>
